<?xml version="1.0" encoding="UTF-8" standalone="no"?>
<!-- Created with Inkscape (http://www.inkscape.org/) -->

<svg
   version="1.1"
   id="svg2"
   width="178.049"
   height="45"
   viewBox="0 0 178.049 45"
   sodipodi:docname="ENSEM.svg"
   inkscape:version="1.3 (0e150ed, 2023-07-21)"
   xml:space="preserve"
   xmlns:inkscape="http://www.inkscape.org/namespaces/inkscape"
   xmlns:sodipodi="http://sodipodi.sourceforge.net/DTD/sodipodi-0.dtd"
   xmlns="http://www.w3.org/2000/svg"
   xmlns:svg="http://www.w3.org/2000/svg"><defs
     id="defs6"><clipPath
       clipPathUnits="userSpaceOnUse"
       id="clipPath26"><path
         d="m 5941.87,1381.98 c -21.19,152.64 -138.84,265.35 -298.84,265.35 -155.31,0 -263.53,-105.67 -294.13,-265.35 z m -4.72,-331.08 308.25,-68.091 C 6181.87,773.82 5934.81,621.191 5650.09,621.191 c -388.25,0 -663.56,270.028 -663.56,657.469 0,375.71 275.31,638.71 663.56,638.71 385.9,0 649.43,-263 649.43,-643.4 0,-30.53 0,-79.83 -4.71,-105.67 l -943.56,2.35 c 30.59,-169.07 148.25,-279.431 308.25,-279.431 127.06,0 235.31,68.109 277.65,159.681 z"
         id="path24" /></clipPath><linearGradient
       x1="0"
       y1="0"
       x2="1"
       y2="0"
       gradientUnits="userSpaceOnUse"
       gradientTransform="matrix(1312.99,0,0,-1312.99,4986.53,1269.28)"
       spreadMethod="pad"
       id="linearGradient38"><stop
         style="stop-opacity:1;stop-color:#2ea148"
         offset="0"
         id="stop28" /><stop
         style="stop-opacity:1;stop-color:#2ea148"
         offset="0.02851634"
         id="stop30" /><stop
         style="stop-opacity:1;stop-color:#3ba898"
         offset="0.492574"
         id="stop32" /><stop
         style="stop-opacity:1;stop-color:#3ba898"
         offset="0.50031905"
         id="stop34" /><stop
         style="stop-opacity:1;stop-color:#459ddc"
         offset="1"
         id="stop36" /></linearGradient><clipPath
       clipPathUnits="userSpaceOnUse"
       id="clipPath48"><path
         d="m 6395,1870.4 h 338.84 v -143.23 c 75.29,122.1 204.72,190.2 352.94,190.2 174.13,0 320.03,-82.19 388.25,-213.68 77.65,131.49 237.65,211.33 404.72,211.33 272.96,0 463.55,-201.95 463.55,-490.77 V 668.148 h -352.96 v 685.662 c 0,143.24 -89.41,248.9 -223.53,253.61 -136.47,0 -228.25,-105.67 -228.25,-253.61 V 668.148 h -352.94 v 685.662 c 0,152.63 -84.71,253.61 -216.49,253.61 -134.1,0 -221.16,-100.98 -221.16,-253.61 V 668.148 H 6395 Z"
         id="path46" /></clipPath><linearGradient
       x1="0"
       y1="0"
       x2="1"
       y2="0"
       gradientUnits="userSpaceOnUse"
       gradientTransform="matrix(1948.3,0,0,-1948.3,6395,1292.76)"
       spreadMethod="pad"
       id="linearGradient56"><stop
         style="stop-opacity:1;stop-color:#459ddc"
         offset="0"
         id="stop50" /><stop
         style="stop-opacity:1;stop-color:#459ddc"
         offset="0.05789251"
         id="stop52" /><stop
         style="stop-opacity:1;stop-color:#5c278c"
         offset="1"
         id="stop54" /></linearGradient><clipPath
       clipPathUnits="userSpaceOnUse"
       id="clipPath66"><path
         d="M 443.473,2116.19 C 322.52,1920.13 253.754,1688.91 249.391,1452.89 244.328,1217.01 303.563,977.211 422.633,766.828 540.875,556.059 718.992,375.84 933.785,252.148 1148.2,127.898 1398.73,60.5586 1652.55,61.8789 1399.89,38.8203 1138.36,84.0195 903.57,194.34 668.613,303.961 460.902,478.691 311.77,697.801 161.875,916.262 70.9961,1178.06 53.4453,1447.91 35.0742,1717.66 90.3516,1995.07 214.527,2241.96 Z"
         id="path64" /></clipPath><linearGradient
       x1="0"
       y1="0"
       x2="1"
       y2="0"
       gradientUnits="userSpaceOnUse"
       gradientTransform="matrix(1809.05,-1809.05,-1809.05,-1809.05,-130.435,1897)"
       spreadMethod="pad"
       id="linearGradient78"><stop
         style="stop-opacity:1;stop-color:#5c278c"
         offset="0"
         id="stop68" /><stop
         style="stop-opacity:1;stop-color:#5c278c"
         offset="0.00742574"
         id="stop70" /><stop
         style="stop-opacity:1;stop-color:#5c278c"
         offset="0.26964035"
         id="stop72" /><stop
         style="stop-opacity:1;stop-color:#459ddc"
         offset="0.594059"
         id="stop74" /><stop
         style="stop-opacity:1;stop-color:#459ddc"
         offset="1"
         id="stop76" /></linearGradient><clipPath
       clipPathUnits="userSpaceOnUse"
       id="clipPath88"><path
         d="m 2061.86,2309.88 c -245.87,4.57 -494.87,-26.03 -726.78,-106.59 -115.75,-40.4 -226.78,-93.79 -328.87,-161.2 L 967.672,2017.01 931.379,1989 c -24.016,-18.93 -49.391,-36.55 -71.137,-58.15 -22.508,-21.05 -45.394,-40.7 -67.894,-62.97 -22.356,-22.44 -43.45,-44.59 -63.489,-67.61 -80.105,-91.23 -140.48,-198.34 -171.433,-316.78 -31.742,-117.9 -34.781,-244.3 -15.067,-368.25 C 561.992,991.07 602.82,869.199 656.945,753.328 711.453,637.531 778.043,526.488 856.555,423.91 770.168,520.09 694.422,626.238 629.844,739.391 565.668,852.699 513.57,974.34 482.547,1103.37 c -31.004,128.69 -39.34,265.81 -14.383,400.05 23.727,134.2 83.356,263.34 165.387,372.79 20.277,27.4 41.797,53.82 63.137,78.9 21.503,24.97 45.667,49.64 68.535,74.52 22.394,25.72 48.515,47.41 73.535,70.48 l 37.945,34.21 40.356,31.18 c 107.381,83.74 226.161,152.77 350.651,207.52 124.57,54.82 254.74,95.62 387.04,124.91 132.34,29.22 267.02,47.55 402.38,55.31 z"
         id="path86" /></clipPath><linearGradient
       x1="0"
       y1="0"
       x2="1"
       y2="0"
       gradientUnits="userSpaceOnUse"
       gradientTransform="matrix(1608.35,0,0,-1608.35,453.516,1488.58)"
       spreadMethod="pad"
       id="linearGradient96"><stop
         style="stop-opacity:1;stop-color:#e91349"
         offset="0"
         id="stop90" /><stop
         style="stop-opacity:1;stop-color:#e91349"
         offset="0.00742574"
         id="stop92" /><stop
         style="stop-opacity:1;stop-color:#f3f022"
         offset="1"
         id="stop94" /></linearGradient><clipPath
       clipPathUnits="userSpaceOnUse"
       id="clipPath106"><path
         d="m 898.836,1377.81 -0.656,-64.26 c -0.176,-20.52 0.418,-40.71 0.925,-60.98 1.961,-40.3 4.465,-80.69 10.18,-120.56 10.442,-79.95 28.731,-158.94 55.617,-235.229 C 991.727,820.469 1027.12,747 1069.99,677.352 1114.27,608.648 1165.86,544.148 1224,484.781 l 10.66,-11.371 11.53,-10.449 23.07,-20.961 23.12,-21.031 c 7.61,-7.168 15.44,-14.071 23.88,-20.207 l 49.59,-38.43 12.43,-9.652 13.1,-8.692 26.25,-17.398 c 34.4,-24.371 71.8,-43.891 108.49,-65.078 37.98,-18.524 75.64,-38.461 115.34,-53.871 157.07,-65.942 327.27,-105.5 500.34,-115.4222 -173.34,-7.4375 -349.31,14.7222 -518.02,66.3322 -42.6,11.828 -83.62,28.437 -125.26,43.859 -40.43,18.141 -81.86,34.84 -120.75,56.809 l -29.65,15.64 -14.84,7.86 -14.22,8.871 -57.05,35.672 c -9.7,5.718 -18.84,12.238 -27.77,19.058 l -27.13,20.059 -27.18,20.141 -13.6,10.109 -12.77,11.07 C 1084.2,465.52 1020.19,530.57 963.152,602.281 907.504,674.91 859.098,753.719 819.891,837.238 780.605,920.73 750.57,1008.73 729.41,1098.73 c -11.09,44.96 -18.695,90.55 -25.512,136.22 -2.929,22.82 -5.89,45.71 -8,68.38 l -5.937,65.3 z"
         id="path104" /></clipPath><linearGradient
       x1="0"
       y1="0"
       x2="1"
       y2="0"
       gradientUnits="userSpaceOnUse"
       gradientTransform="matrix(1451.84,0,0,-1451.84,689.962,734.32)"
       spreadMethod="pad"
       id="linearGradient116"><stop
         style="stop-opacity:1;stop-color:#459ddc"
         offset="0"
         id="stop108" /><stop
         style="stop-opacity:1;stop-color:#459ddc"
         offset="0.00742574"
         id="stop110" /><stop
         style="stop-opacity:1;stop-color:#2ea148"
         offset="0.40899316"
         id="stop112" /><stop
         style="stop-opacity:1;stop-color:#2ea148"
         offset="1"
         id="stop114" /></linearGradient></defs><sodipodi:namedview
     id="namedview4"
     pagecolor="#ffffff"
     bordercolor="#000000"
     borderopacity="0.25"
     inkscape:showpageshadow="2"
     inkscape:pageopacity="0.0"
     inkscape:pagecheckerboard="0"
     inkscape:deskcolor="#d1d1d1"
     showgrid="false"
     inkscape:zoom="1.6719773"
     inkscape:cx="226.97677"
     inkscape:cy="-14.653309"
     inkscape:window-width="1512"
     inkscape:window-height="916"
     inkscape:window-x="0"
     inkscape:window-y="38"
     inkscape:window-maximized="0"
     inkscape:current-layer="g2"><inkscape:page
       x="0"
       y="0"
       id="page8"
       width="178.049"
       height="45"
       margin="0"
       bleed="0" /></sodipodi:namedview><g
     id="g10"
     inkscape:groupmode="layer"
     inkscape:label="Page 1"
     transform="matrix(1.3333333,0,0,-1.3333333,0,346.66667)"><g
       id="g1"
       transform="translate(-6.9265444,-0.210261)"><g
         id="g2"><g
           id="g12688"
           transform="matrix(0.06627965,0,0,-0.06627965,6.9322326,260.55935)"><path
             style="fill:#2a2e47;fill-opacity:1;stroke-width:1.33333"
             d="M 783.91418,48.600554 V 6.6005635 h 28.66667 28.66667 v 10.6666605 10.66667 h -17.33334 -17.33333 v 4.62563 4.62562 l 16.33333,0.37438 16.33334,0.37437 0.39174,9.66667 0.39175,9.66666 h -16.72508 -16.72508 v 6 6 h 18 18 v 10.66667 10.66667 h -29.33333 -29.33334 z"
             id="path10834" /><path
             style="fill:#2a2e47;fill-opacity:1;stroke-width:1.33333"
             d="M 674.58085,48.652454 V 6.6005535 h 12.5636 12.5636 l 14.10307,22.9367705 14.10306,22.93677 V 29.537324 6.6005535 h 11.33334 11.33333 v 42.0000005 42 h -12.45853 -12.45854 l -9.1436,-15 c -5.02898,-8.25 -11.46236,-18.6 -14.29639,-23 l -5.15278,-8 0.42158,22.66666 0.42159,22.66667 -11.66667,0.38524 -11.66666,0.38525 v -42.05191 z"
             id="path10832" /><path
             style="fill:#2a2e47;fill-opacity:1;stroke-width:1.33333"
             d="M 618.58086,48.600554 V 6.4967335 l 11.66666,0.38525 11.66666,0.38524 v 41.3333405 41.33333 l -11.66666,0.38524 -11.66666,0.38525 z"
             id="path10830" /><path
             id="path10828"
             style="fill:#2a2e47;fill-opacity:1;stroke-width:1.33333"
             d="m 540.20529,6.4972435 -4.05078,9.7187505 c -2.2282,5.34502 -10.02107,23.93969 -17.31836,41.32226 -7.29729,17.38258 -12.91849,31.95455 -12.49219,32.38086 0.4263,0.42629 6.20435,0.60343 12.83985,0.39453 l 12.06445,-0.3789 2.63867,-7.66797 2.64063,-7.66602 h 13.47461 13.47461 l 3.45312,8 3.45117,8 h 12.02149 c 6.61161,0 12.26178,-0.45 12.55664,-1 0.29488,-0.55 -7.10123,-19.29937 -16.43555,-41.66601 l -16.9707,-40.6679705 -10.67383,-0.38477 z m 9.64844,33.0937505 c 1.10964,-0.11705 4.11833,6.12312 5.57617,11.93164 0.72291,2.88028 0.38046,3.07812 -5.35156,3.07812 h -6.125 l 2.45898,-6.33398 c 1.35299,-3.48333 2.76019,-7.23203 3.125,-8.33203 0.0725,-0.21872 0.18014,-0.32938 0.31641,-0.34375 z" /><path
             id="path10824"
             style="fill:#2a2e47;fill-opacity:1;stroke-width:1.33333"
             d="m 421.24826,6.3312235 v 42.1875005 42.18555 l 11.66602,-0.38477 11.66601,-0.38476 0.66797,-15.88086 c 0.5013,-11.93946 1.03163,-15.41334 2.14063,-14 0.8113,1.03388 4.90782,8.32957 9.10351,16.21289 l 7.62891,14.33398 h 13.23047 c 9.70839,0 13.22212,-0.44295 13.20312,-1.66601 -0.014,-0.91667 -4.46132,-8.84527 -9.88281,-17.61914 l -9.85742,-15.95313 3.66797,-2.23047 c 8.88959,-5.40607 13.34101,-16.18256 10.82031,-26.19336 -2.144,-8.51467 -4.90921,-12.03779 -12.5957,-16.04101 -6.4039,-3.3352005 -8.07128,-3.5679905 -29.12696,-4.0527405 z m 22.66602,19.9023405 7.57812,0.89063 c 4.1683,0.48991 8.36899,1.54681 9.33399,2.34766 2.47639,2.05519 2.1775,5.66665 -0.6836,8.25586 -1.6071,1.45449 -4.78919,2.20703 -9.33398,2.20703 h -6.89453 v -6.85157 z" /><path
             id="path10820"
             style="fill:#2a2e47;fill-opacity:1;stroke-width:1.33333"
             d="m 326.58029,6.6007535 v 42.0000005 42 h 11.33399 11.33398 v -16.11133 c 0,-11.99839 0.40968,-15.97408 1.60938,-15.57421 0.8859,0.29532 5.4409,7.54553 10.12109,16.11132 l 8.50977,15.57422 h 13.21289 c 7.72499,0 13.21289,-0.54202 13.21289,-1.30469 0,-0.71747 -4.46955,-8.59915 -9.93164,-17.51367 l -9.92969,-16.20703 4.23242,-2.85351 c 7.19709,-4.85012 10.29492,-10.78502 10.29492,-19.71875 0,-8.95038 -2.10313,-13.90196 -8.01562,-18.87696 -6.80809,-5.7286405 -15.6146,-7.5253905 -36.89258,-7.5253905 z m 26.42774,19.9375005 c 1.6375,0.01393 3.98603,0.3808 7.35547,0.9375 6.60429,1.09116 9.23278,5.72095 5.55468,9.78516 -1.84519,2.03899 -4.10672,2.67383 -9.54492,2.67383 h -7.125 v -6.66797 c 0,-5.08688 0.15727,-6.75915 3.75977,-6.72852 z" /><path
             style="fill:#2a2e47;fill-opacity:1;stroke-width:1.33333"
             d="M 134.58088,48.576254 V 6.4967335 l 11.6666,0.38525 11.6667,0.38524 0.3579,31.0000005 0.3579,31 h 15.3649 15.3648 l -0.3894,10.33334 -0.3894,10.33333 -27,0.36094 -27,0.36094 z"
             id="path10816" /><path
             style="fill:#1b9bd8;fill-opacity:1;stroke-width:1.33333"
             d="m 0.63057805,89.347704 c -1.3711,-2.21856 0.54999995,-26.51828 2.64169995,-33.41381 4.6747,-15.41095 16.8824,-31.19921 30.1234,-38.959 7.9842,-4.67903 20.3653,-8.6959605 28.5185,-9.2525505 l 6.6667,-0.45512 v 41.3333405 41.33333 l -33.6612,0.21495 c -18.5136,0.11823 -33.94369995,-0.24229 -34.28909995,-0.80114 z"
             id="path10814" /><path
             id="path10812"
             style="fill:#2a2e47;fill-opacity:1;stroke-width:1.33333"
             d="m 251.91428,5.2667735 c -14.44129,0 -23.74977,3.57597 -32.75586,12.5820305 -8.67709,8.6771 -11.92921,17.37034 -11.75391,31.41797 0.246,19.7232 10.20268,33.58878 28.91016,40.26172 9.32459,3.32605 26.97898,2.73289 35.76367,-1.20117 8.76689,-3.92609 16.49988,-11.42969 20.79688,-20.17969 3.22329,-6.56378 3.70531,-9.11079 3.69531,-19.54688 -0.0135,-14.80072 -3.29491,-23.11453 -12.5332,-31.75586 C 275.51813,8.8761635 265.50586,5.2667735 251.91428,5.2667735 Z M 251.7717,26.872244 c 4.04759,-0.16746 8.29043,0.9858 12.26563,3.8164 10.69618,7.61633 10.03038,29.58245 -1.09571,36.15235 -12.36329,7.30047 -25.9644,1.6075 -29.75,-12.45117 -3.93899,-14.62821 6.4373,-27.01522 18.58008,-27.51758 z" /><path
             style="fill:#2a2e47;fill-opacity:1;stroke-width:1.33333"
             d="m 552.22706,341.60064 0.3538,-165 4.77964,-10.0077 c 6.21309,-13.0092 14.8702,-21.6663 27.8793,-27.8794 l 10.00772,-4.7796 61.33333,-0.41 c 65.98597,-0.4411 78.71913,0.3075 99.53352,5.8518 57.08961,15.2068 87.7238,57.1114 87.78229,120.0776 0.0107,11.6246 -0.78448,23.0805 -2.07429,29.8798 -8.19637,43.2078 -34.35057,73.7598 -75.24152,87.8933 -20.59645,7.1189 -30.16065,8.3098 -72.33334,9.0069 l -39.66666,0.6557 v -34.0129 -34.0129 l 34.33333,-0.6212 c 34.74727,-0.6286 39.78223,-1.2691 52.58615,-6.689 6.34408,-2.6854 16.39119,-11.968 20.44997,-18.8938 6.51707,-11.1205 9.1351,-33.1999 5.8093,-48.993 -3.23059,-15.341 -12.34984,-27.8541 -25.00423,-34.3099 -11.74707,-5.9929 -19.23472,-6.7151 -69.84119,-6.736 l -47.66666,-0.02 v 152 152 h -36.68713 -36.68713 z"
             id="path10808" /><path
             style="fill:#1b9bd8;fill-opacity:1;stroke-width:1.33333"
             d="m 419.99258,504.40064 c -7.568,-2.6488 -3.4488,0.22 -103.8252,-72.3082 l -85.5865,-61.8415 v -43.8252 c 0,-24.1038 0.45,-43.7977 1,-43.7641 0.55,0.034 41.5,29.3953 91,65.2485 l 90,65.1876 0.3394,-140.5819 0.3394,-140.5819 h 34.6606 34.6606 v 165.7199 c 0,182.499 0.3443,174.6099 -8.2029,187.9296 -11.0338,17.1947 -35.1658,25.5443 -54.3854,18.8172 z"
             id="path10806" /><path
             style="fill:#2a2e47;fill-opacity:1;stroke-width:1.33333"
             d="m 134.58088,339.47914 c 0,-141.5275 0.2937,-168.0973 1.9178,-173.4938 8.2485,-27.4078 39.2004,-41.389 64.5991,-29.1799 4.3422,2.0874 47.818,32.5952 96.6128,67.7952 l 88.7177,64 0.076,44.3333 c 0.042,24.3833 -0.1864,44.3333 -0.5075,44.3333 -0.321,0 -41.271,-29.424 -91,-65.3868 l -90.4162,-65.3869 -0.3395,140.0536 -0.3394,140.0535 h -34.6606 -34.6605 z"
             id="path10804" /><path
             style="fill:#2a2e47;fill-opacity:1;stroke-width:1.33333"
             d="m -0.08582195,319.26724 v -187.3333 h 34.66669995 34.6666 v 187.3333 187.3334 h -34.6666 -34.66669995 z"
             id="path10802" /><path
             style="fill:#1b9bd8;fill-opacity:1;stroke-width:1.33333"
             d="m 1766.5808,378.03264 c 0,-91.8995 0.4485,-133.4211 1.4948,-138.3664 2.6652,-12.5976 8.424,-23.2313 17.4921,-32.2995 13.8762,-13.8762 28.3826,-19.4328 50.7318,-19.4328 21.3178,0 35.6888,6.0451 48.2553,20.2985 l 6.4699,7.3383 4.1114,-6.119 c 5.2707,-7.8445 16.337,-15.5292 27.1892,-18.8812 9.7179,-3.0015 27.7516,-3.5418 39.1899,-1.174 23.8953,4.9465 42.58,22.4165 50.1381,46.8786 1.9176,6.2064 2.2084,21.9384 2.5868,139.9921 l 0.4266,133 h -22.0112 -22.0112 l -0.3651,-130.3333 -0.3651,-130.3333 -2.8702,-5.3334 c -5.5836,-10.375 -14.0706,-15.354 -26.087,-15.304 -13.7265,0.057 -24.9002,8.7862 -27.6481,21.5991 -0.9152,4.2672 -1.3947,50.0284 -1.3947,133.1039 v 126.601 h -22 -22 l -0.029,-129.6666 c -0.028,-123.5196 -0.1467,-129.9195 -2.5063,-135 -1.3622,-2.9334 -3.8361,-6.7516 -5.4973,-8.4851 -9.8504,-10.2789 -30.6576,-10.8452 -41.0756,-1.118 -7.9984,7.4682 -7.4964,-1.2154 -8.2248,142.2697 l -0.667,131.3334 -21.6666,0.3663 -21.6667,0.3664 z"
             id="path10800" /><path
             style="fill:#1b9bd8;fill-opacity:1;stroke-width:1.33333"
             d="m 1161.8225,507.50904 c -0.3711,-0.967 -0.4978,-60.517 -0.2816,-132.3333 l 0.3931,-130.5751 2.9704,-8.7629 c 7.8259,-23.0865 25.8777,-39.7721 49.6765,-45.917 12.4242,-3.208 37.4202,-2.2694 49.3333,1.8524 15.3112,5.2974 30.2999,17.1413 37.7221,29.8073 1.8329,3.1278 4.7452,10.1868 6.4718,15.6868 l 3.1395,10 v 130.6667 130.6667 l -21.6225,0.3661 -21.6225,0.3662 -0.3775,-129.0328 -0.3775,-129.0329 -3.1198,-6.3349 c -5.4882,-11.1445 -15.3873,-16.9984 -28.7444,-16.9984 -11.3348,0 -20.7987,5.9317 -26.5913,16.6667 l -2.8779,5.3333 -0.3713,129.6667 -0.3712,129.6666 h -21.3373 c -16.4323,0 -21.4923,-0.4041 -22.0119,-1.7582 z"
             id="path10798" /><path
             style="fill:#1b9bd8;fill-opacity:1;stroke-width:1.33333"
             d="m 988.24336,300.93394 0.33749,-208.333376 64.33335,-0.34614 64.3334,-0.34614 v 20.679506 20.67945 h -42.6667 -42.6667 v 73.3334 73.3333 h 38.6667 38.6667 v 20 20 h -38.6667 -38.6667 v 74.6667 74.6666 h 42.6667 42.6667 v 20 20 h -64.6709 -64.67085 z"
             id="path10796" /><path
             id="path10794"
             style="fill:#1b9bd8;fill-opacity:1;stroke-width:1.33333"
             d="m 1640.3361,187.93474 c -22.9156,0 -40.1032,6.4742 -54.3828,20.4883 -8.5092,8.3511 -13.0545,15.8323 -17.5215,28.8437 -2.3858,6.9496 -2.5176,12.9151 -2.5176,114 0,101.085 0.1316,107.0504 2.5176,114 8.455,24.6272 25.5622,40.7381 50.1484,47.2246 v -0.002 c 9.9977,2.6377 32.8832,2.6463 43.0352,0.0156 25.1528,-6.5177 44.6842,-25.5018 50.8535,-49.4297 1.5372,-5.9623 2.1113,-14.584 2.1113,-31.6679 v -23.4727 h -22 -22 v 21.7598 c 0,21.0973 -0.1112,21.9818 -3.666,28.9922 -5.2504,10.354 -12.0262,14.7244 -24.1758,15.5937 -8.2646,0.5914 -10.2883,0.2428 -16.6132,-2.8516 -8.2204,-4.0219 -13.2964,-10.3988 -15.5137,-19.4941 -0.9174,-3.7625 -1.3196,-18.0948 -1.0801,-38.4316 l 0.3828,-32.4297 40.5098,-18.5117 c 22.2805,-10.1809 42.9323,-20.1874 45.8926,-22.2364 7.2763,-5.0365 13.6626,-14.1717 16.1816,-23.1465 3.0081,-10.7159 2.9867,-66.0209 -0.029,-77.7187 -3.2332,-12.5402 -9.29,-22.6417 -19.1191,-31.8867 -14.7686,-13.8908 -30.285,-19.6387 -53.0137,-19.6387 z m -0.8828,40.1855 c 1.2762,-0.004 2.5946,0.0489 3.957,0.1582 11.6075,0.9317 18.4163,5.47 23.4903,15.6563 3.5961,7.2195 3.6549,7.7393 3.7539,33.5644 0.082,21.4965 -0.2828,26.9713 -2.0176,30.3262 -2.3539,4.5517 -5.1466,6.1249 -37.25,20.9727 -11.657,5.3914 -21.4084,9.8027 -21.668,9.8027 -0.2596,0 -0.4707,-18.7909 -0.4707,-41.7578 0,-47.06 0.6693,-51.7392 8.584,-59.8887 5.7953,-5.9671 12.6873,-8.8038 21.6211,-8.834 z" /><path
             style="fill:#1b9bd8;fill-opacity:1;stroke-width:1.33333"
             d="m 1420.5809,512.72514 c -28.9705,-6.6944 -47.8097,-24.1927 -54.6261,-50.738 -1.4468,-5.6344 -2.0406,-14.6549 -2.0406,-31 v -23.0532 h 22 22 l 0.029,21.6667 c 0.032,24.2551 1.1633,28.6972 9.325,36.6367 5.6151,5.4621 11.875,7.6074 21.979,7.5322 12.2794,-0.091 20.9252,-5.4064 26.844,-16.5023 2.1576,-4.0447 2.4893,-7.7761 2.4893,-28 v -23.3333 l -3.9643,-7.1574 c -5.6069,-10.1234 -16.9606,-19.8031 -40.1066,-34.1936 -27.1104,-16.8552 -35.0666,-22.9149 -43.1511,-32.8653 -7.8247,-9.6306 -12.7517,-18.937 -15.5076,-29.2916 -2.7693,-10.4048 -2.6536,-51.9946 0.1752,-62.9663 6.1693,-23.9279 25.7007,-42.9128 50.8535,-49.4305 9.4132,-2.4392 30.3348,-2.7649 40.6353,-0.6327 12.8052,2.6508 26.2257,10.067 35.7323,19.7459 15.6429,15.9264 19.9397,29.504 19.9768,63.1248 l 0.023,21 h -21.8876 -21.8876 l -0.4458,-22.4428 c -0.442,-22.2526 -0.4797,-22.4984 -4.4522,-29 -9.347,-15.2976 -33.2906,-18.7837 -46.9059,-6.8292 -8.4069,7.3813 -9.6935,12.0982 -9.712,35.6054 -0.015,18.8806 0.2528,21.2428 3.0965,27.3333 4.6964,10.058 17.5635,21.0659 43.6719,37.3616 35.2428,21.9969 49.9173,38.0849 55.8316,61.2095 3.3927,13.2653 3.7681,48.1018 0.6765,62.7622 -5.2632,24.9574 -23.503,44.428 -48.6521,51.9346 -10.204,3.0457 -31.9917,3.8359 -42,1.5233 z"
             id="path7444" /></g></g></g></g></svg>
